<svg width="48.00000000000001" height="48.00000000000001" xmlns="http://www.w3.org/2000/svg">
 <!-- Created with Method Draw - http://github.com/duopixel/Method-Draw/ -->
 <g>
  <title>background</title>
  <rect fill="none" id="canvas_background" height="50" width="50" y="-1" x="-1"/>
  <g display="none" overflow="visible" y="0" x="0" height="100%" width="100%" id="canvasGrid">
   <rect fill="url(#gridpattern)" stroke-width="0" y="0" x="0" height="100%" width="100%"/>
  </g>
 </g>
 <g>
  <title>Layer 1</title>
  <ellipse ry="9.137931" rx="20.517242" id="svg_3" cy="31.241378" cx="23.827565" fill-opacity="null" stroke-opacity="null" stroke-width="0" stroke="#000" fill="#ffd4aa"/>
  <path id="svg_2" d="m19.934406,33.384705c0.943745,-0.769978 -1.197731,-1.421324 -1.515633,-2.148401c-0.936029,-1.427547 -1.227575,-3.325092 -1.488363,-5.087433c0.448179,-0.947018 0.266649,-1.925392 0.429014,-2.90955c0.793911,-1.461395 1.233109,-3.17572 2.030922,-4.631809c0.888502,0.232525 1.849213,1.126438 2.739269,1.466133c0.803482,1.791252 -0.66592,3.282894 -0.493227,5.017117c0.337032,1.616837 -0.565805,2.964298 -0.747211,4.471203c0.006296,1.425541 1.051682,2.868631 2.194109,1.888596c-0.057966,-1.039612 -1.687624,-1.361851 -0.958071,-2.823875c0.240013,-1.511593 1.026871,-2.721783 1.621754,-3.991653c-0.336143,-1.488941 0.111277,-3.376297 0.868639,-4.492447c0.769007,0.921242 1.300085,2.541058 1.41777,3.831062c0.0149,1.478733 1.60264,2.468311 1.572527,4.209904c0.118607,1.539726 0.700035,3.005913 1.506382,3.840559c0.421692,1.0868 3.038157,0.519875 1.644655,-0.771265c-1.150785,-1.287907 -2.474791,-2.653641 -2.649508,-4.705936c-0.477379,-1.218269 0.619858,-2.944595 -0.727692,-3.453484c0.083538,-1.650848 -0.269119,-3.52478 0.489494,-4.997318c1.092743,-1.158094 2.693151,-1.243961 3.738176,-2.525095c1.268173,-1.042582 1.988121,-2.750645 2.393768,-4.520721c0.614491,-0.853743 1.568951,-2.699045 2.630733,-1.739725c1.041763,0.798851 0.272884,-1.210703 0.871166,-1.654102c-0.493721,-2.209019 -2.497131,-1.148499 -3.747623,-1.699602c-1.135265,-0.942904 -2.310711,-0.399284 -3.138683,0.677719c-0.620155,0.346563 -0.284672,1.253603 0.323685,0.912374c-0.436321,1.797822 -1.037828,3.776144 -2.360472,4.840812c-1.51759,0.823431 -2.364101,-1.616219 -3.265203,-2.675148c-0.983549,-1.193773 -1.593351,-2.935535 -2.83214,-3.755067c-1.723103,-0.541061 -3.032167,1.33526 -4.33354,2.391721c-1.291481,0.801853 -2.842304,1.198114 -3.723385,2.762163c-1.462212,2.179371 -0.535257,5.467625 -2.072823,7.610788c-0.633263,1.188457 -2.027564,2.044392 -1.835962,3.67775c0.679092,1.749275 0.083939,3.837093 0.454731,5.71917c0.274027,1.360111 0.679773,3.107292 2.008078,3.309368c1.044994,0.821501 1.614153,-0.899422 0.507685,-1.397839c-1.335678,-0.735939 -1.518158,-2.807476 -1.625488,-4.398758c-0.294601,-1.574551 0.711529,-2.616405 1.127033,-3.852283c-0.350885,-1.207237 0.886389,-2.848232 1.671192,-2.603855c-0.586523,1.11734 -1.442879,2.567299 -0.054619,3.48764c-0.018192,0.056446 0.203718,-1.031437 0.561157,-1.358311c-0.053326,-0.852299 -0.750481,-1.577919 -0.011028,-2.440319c1.29726,-1.07266 1.011332,2.03891 0.741982,2.921234c-0.014284,1.354946 -1.478708,2.431087 -0.730953,3.788918c0.819191,1.674725 1.203588,3.597279 1.517954,5.494678c0.451031,1.573935 1.590586,2.725061 3.015472,2.318277l0.234276,-0.003189l0,0z" stroke-opacity="null" stroke-width="0" stroke="#000" fill="#ff7f00"/>
 </g>
</svg>